<mxfile host="app.diagrams.net" modified="2024-01-08T16:07:14.910Z" agent="Mozilla/5.0 (Windows NT 10.0; Win64; x64) AppleWebKit/537.36 (KHTML, like Gecko) Chrome/120.0.0.0 Safari/537.36 Edg/120.0.0.0" etag="KBP1po_DwKimSyvz9-IH" version="22.1.17" type="dropbox" pages="2">
  <diagram name="Logica y Monitoreo" id="0FkybA1-IUm2QzMMmdFW">
    <mxGraphModel dx="951" dy="547" grid="1" gridSize="10" guides="1" tooltips="1" connect="1" arrows="1" fold="1" page="1" pageScale="1" pageWidth="1654" pageHeight="1169" math="0" shadow="0">
      <root>
        <mxCell id="0" />
        <mxCell id="1" parent="0" />
        <mxCell id="X6f6DRB3DddGBT53lCf2-1" value="" style="rounded=0;whiteSpace=wrap;html=1;" parent="1" vertex="1">
          <mxGeometry x="80" y="60" width="540" height="420" as="geometry" />
        </mxCell>
        <mxCell id="X6f6DRB3DddGBT53lCf2-2" style="edgeStyle=orthogonalEdgeStyle;rounded=0;orthogonalLoop=1;jettySize=auto;html=1;exitX=0.5;exitY=1;exitDx=0;exitDy=0;" parent="1" source="X6f6DRB3DddGBT53lCf2-15" target="X6f6DRB3DddGBT53lCf2-6" edge="1">
          <mxGeometry relative="1" as="geometry">
            <mxPoint x="236.5" y="287" as="targetPoint" />
          </mxGeometry>
        </mxCell>
        <mxCell id="X6f6DRB3DddGBT53lCf2-3" value="" style="ellipse;whiteSpace=wrap;html=1;aspect=fixed;fillColor=#d5e8d4;strokeColor=#82b366;" parent="1" vertex="1">
          <mxGeometry x="120" y="141" width="40" height="40" as="geometry" />
        </mxCell>
        <mxCell id="X6f6DRB3DddGBT53lCf2-5" style="edgeStyle=orthogonalEdgeStyle;rounded=0;orthogonalLoop=1;jettySize=auto;html=1;exitX=0.5;exitY=1;exitDx=0;exitDy=0;" parent="1" source="X6f6DRB3DddGBT53lCf2-6" target="X6f6DRB3DddGBT53lCf2-33" edge="1">
          <mxGeometry relative="1" as="geometry" />
        </mxCell>
        <mxCell id="X6f6DRB3DddGBT53lCf2-6" value="¿El monto de recarga es valido(s/7)?" style="rhombus;whiteSpace=wrap;html=1;fillColor=#dae8fc;strokeColor=#6c8ebf;fontSize=11;" parent="1" vertex="1">
          <mxGeometry x="196.5" y="290" width="101.25" height="60" as="geometry" />
        </mxCell>
        <mxCell id="X6f6DRB3DddGBT53lCf2-7" value="Notificaciones&amp;nbsp; Externas" style="text;html=1;strokeColor=none;fillColor=none;align=center;verticalAlign=middle;whiteSpace=wrap;rounded=0;" parent="1" vertex="1">
          <mxGeometry x="110" y="100" width="60" height="30" as="geometry" />
        </mxCell>
        <mxCell id="X6f6DRB3DddGBT53lCf2-8" style="edgeStyle=orthogonalEdgeStyle;rounded=0;orthogonalLoop=1;jettySize=auto;html=1;entryX=0;entryY=0.5;entryDx=0;entryDy=0;" parent="1" source="X6f6DRB3DddGBT53lCf2-45" target="X6f6DRB3DddGBT53lCf2-9" edge="1">
          <mxGeometry relative="1" as="geometry">
            <mxPoint x="623.25" y="562.5" as="sourcePoint" />
          </mxGeometry>
        </mxCell>
        <mxCell id="X6f6DRB3DddGBT53lCf2-9" value="" style="ellipse;whiteSpace=wrap;html=1;aspect=fixed;fillColor=#f8cecc;strokeColor=#b85450;" parent="1" vertex="1">
          <mxGeometry x="550" y="141" width="40" height="40" as="geometry" />
        </mxCell>
        <mxCell id="X6f6DRB3DddGBT53lCf2-10" value="STREAM - ms-campaign-recharge-bonus-stream" style="text;html=1;align=center;verticalAlign=middle;whiteSpace=wrap;rounded=0;fillColor=default;strokeColor=default;" parent="1" vertex="1">
          <mxGeometry x="80" y="30" width="540" height="30" as="geometry" />
        </mxCell>
        <mxCell id="X6f6DRB3DddGBT53lCf2-13" style="edgeStyle=orthogonalEdgeStyle;rounded=0;orthogonalLoop=1;jettySize=auto;html=1;exitX=0.5;exitY=0;exitDx=0;exitDy=0;entryX=0.5;entryY=1;entryDx=0;entryDy=0;" parent="1" source="X6f6DRB3DddGBT53lCf2-19" target="X6f6DRB3DddGBT53lCf2-23" edge="1">
          <mxGeometry relative="1" as="geometry" />
        </mxCell>
        <mxCell id="X6f6DRB3DddGBT53lCf2-14" value="" style="edgeStyle=orthogonalEdgeStyle;rounded=0;orthogonalLoop=1;jettySize=auto;html=1;exitX=0.5;exitY=1;exitDx=0;exitDy=0;entryX=0.5;entryY=0;entryDx=0;entryDy=0;" parent="1" source="X6f6DRB3DddGBT53lCf2-17" target="X6f6DRB3DddGBT53lCf2-15" edge="1">
          <mxGeometry relative="1" as="geometry">
            <mxPoint x="260" y="160" as="sourcePoint" />
            <mxPoint x="380" y="160" as="targetPoint" />
          </mxGeometry>
        </mxCell>
        <mxCell id="X6f6DRB3DddGBT53lCf2-15" value="¿Campaña Activa?" style="rhombus;whiteSpace=wrap;html=1;fillColor=#dae8fc;strokeColor=#6c8ebf;fontSize=11;" parent="1" vertex="1">
          <mxGeometry x="196.5" y="210" width="103.5" height="60" as="geometry" />
        </mxCell>
        <mxCell id="X6f6DRB3DddGBT53lCf2-16" value="" style="edgeStyle=orthogonalEdgeStyle;rounded=0;orthogonalLoop=1;jettySize=auto;html=1;exitX=1;exitY=0.5;exitDx=0;exitDy=0;entryX=0;entryY=0.5;entryDx=0;entryDy=0;" parent="1" source="X6f6DRB3DddGBT53lCf2-3" target="X6f6DRB3DddGBT53lCf2-17" edge="1">
          <mxGeometry relative="1" as="geometry">
            <mxPoint x="140" y="160" as="sourcePoint" />
            <mxPoint x="285" y="160" as="targetPoint" />
          </mxGeometry>
        </mxCell>
        <mxCell id="X6f6DRB3DddGBT53lCf2-17" value="¿Es evento de recarga?" style="rhombus;whiteSpace=wrap;html=1;fillColor=#dae8fc;strokeColor=#6c8ebf;fontSize=11;" parent="1" vertex="1">
          <mxGeometry x="196.5" y="131" width="103.5" height="60" as="geometry" />
        </mxCell>
        <mxCell id="X6f6DRB3DddGBT53lCf2-19" value="¿Es prepago?" style="rhombus;whiteSpace=wrap;html=1;fillColor=#dae8fc;strokeColor=#6c8ebf;fontSize=10;" parent="1" vertex="1">
          <mxGeometry x="399.25" y="376" width="100" height="60" as="geometry" />
        </mxCell>
        <mxCell id="X6f6DRB3DddGBT53lCf2-21" style="edgeStyle=orthogonalEdgeStyle;rounded=0;orthogonalLoop=1;jettySize=auto;html=1;exitX=1;exitY=0.5;exitDx=0;exitDy=0;" parent="1" source="X6f6DRB3DddGBT53lCf2-33" target="X6f6DRB3DddGBT53lCf2-19" edge="1">
          <mxGeometry relative="1" as="geometry" />
        </mxCell>
        <mxCell id="X6f6DRB3DddGBT53lCf2-22" style="edgeStyle=orthogonalEdgeStyle;rounded=0;orthogonalLoop=1;jettySize=auto;html=1;exitX=0.5;exitY=0;exitDx=0;exitDy=0;entryX=0.5;entryY=1;entryDx=0;entryDy=0;" parent="1" source="X6f6DRB3DddGBT53lCf2-23" target="X6f6DRB3DddGBT53lCf2-25" edge="1">
          <mxGeometry relative="1" as="geometry" />
        </mxCell>
        <mxCell id="X6f6DRB3DddGBT53lCf2-23" value="¿El tipo de documento es valido?" style="rhombus;whiteSpace=wrap;html=1;fillColor=#dae8fc;strokeColor=#6c8ebf;fontSize=11;" parent="1" vertex="1">
          <mxGeometry x="398.5" y="290" width="100.75" height="60" as="geometry" />
        </mxCell>
        <mxCell id="X6f6DRB3DddGBT53lCf2-24" style="edgeStyle=orthogonalEdgeStyle;rounded=0;orthogonalLoop=1;jettySize=auto;html=1;exitX=0.5;exitY=0;exitDx=0;exitDy=0;entryX=0.5;entryY=1;entryDx=0;entryDy=0;" parent="1" source="X6f6DRB3DddGBT53lCf2-25" target="X6f6DRB3DddGBT53lCf2-45" edge="1">
          <mxGeometry relative="1" as="geometry">
            <mxPoint x="407.9949999999999" y="431" as="targetPoint" />
          </mxGeometry>
        </mxCell>
        <mxCell id="X6f6DRB3DddGBT53lCf2-25" value="¿Es preplan?" style="rhombus;whiteSpace=wrap;html=1;fillColor=#dae8fc;strokeColor=#6c8ebf;fontSize=11;" parent="1" vertex="1">
          <mxGeometry x="396.38" y="210" width="102.87" height="59" as="geometry" />
        </mxCell>
        <mxCell id="X6f6DRB3DddGBT53lCf2-33" value="Obtener información de la linea por numero telefonico" style="rounded=1;whiteSpace=wrap;html=1;fillColor=#dae8fc;strokeColor=#6c8ebf;fontSize=10;arcSize=11;" parent="1" vertex="1">
          <mxGeometry x="198.87" y="380.5" width="98.75" height="51" as="geometry" />
        </mxCell>
        <mxCell id="X6f6DRB3DddGBT53lCf2-45" value="Aprovisionar Bono" style="rounded=1;whiteSpace=wrap;html=1;fillColor=#dae8fc;strokeColor=#6c8ebf;fontSize=10;arcSize=11;" parent="1" vertex="1">
          <mxGeometry x="398.12" y="143.13" width="101.13" height="35.75" as="geometry" />
        </mxCell>
        <mxCell id="X6f6DRB3DddGBT53lCf2-46" value="&lt;p style=&quot;margin-left:36.0000pt;text-indent:-18.0000pt;mso-list:l0 level1 lfo1;&quot; class=&quot;15&quot;&gt;&lt;br&gt;&lt;/p&gt;" style="rounded=0;whiteSpace=wrap;html=1;shadow=0;glass=0;labelBorderColor=none;sketch=0;fillStyle=auto;strokeColor=#000000;strokeWidth=1;fontSize=13;fontColor=#7ece78;fillColor=default;" parent="1" vertex="1">
          <mxGeometry x="80" y="520" width="790" height="560" as="geometry" />
        </mxCell>
        <mxCell id="X6f6DRB3DddGBT53lCf2-47" value="" style="rounded=0;whiteSpace=wrap;html=1;labelBorderColor=none;fontSize=11;fillColor=default;shadow=1;strokeColor=#3399FF;" parent="1" vertex="1">
          <mxGeometry x="657.37" y="900" width="162.63" height="120" as="geometry" />
        </mxCell>
        <mxCell id="X6f6DRB3DddGBT53lCf2-48" value="Servidores&lt;br style=&quot;font-size: 8px;&quot;&gt;&lt;div&gt;10.4.88.61&lt;/div&gt;&lt;div&gt;10.4.88.147&lt;/div&gt;&lt;div&gt;10.4.88.148&lt;/div&gt;" style="rounded=0;whiteSpace=wrap;html=1;labelBorderColor=none;fontSize=8;strokeColor=#EA6B66;align=left;dashed=1;strokeWidth=1;dashPattern=1 4;fontColor=#EA6B66;" parent="1" vertex="1">
          <mxGeometry x="640.0000000000002" y="603" width="48.53" height="40" as="geometry" />
        </mxCell>
        <mxCell id="X6f6DRB3DddGBT53lCf2-49" value="Servidores&lt;br style=&quot;font-size: 8px;&quot;&gt;&lt;div&gt;10.4.88.109,&amp;nbsp;&lt;span style=&quot;background-color: initial;&quot;&gt;10.4.88.119,&lt;/span&gt;&lt;/div&gt;&lt;div&gt;&lt;div style=&quot;border-color: var(--border-color);&quot;&gt;10.4.88.138,&amp;nbsp;&lt;span style=&quot;background-color: initial;&quot;&gt;10.4.88.144&lt;/span&gt;&lt;/div&gt;&lt;/div&gt;" style="rounded=0;whiteSpace=wrap;html=1;labelBorderColor=none;fontSize=8;strokeColor=#004C99;align=left;dashed=1;strokeWidth=1;dashPattern=1 4;fontColor=#004C99;" parent="1" vertex="1">
          <mxGeometry x="180.0000000000001" y="1020" width="104.57" height="30" as="geometry" />
        </mxCell>
        <mxCell id="X6f6DRB3DddGBT53lCf2-50" value="Servidores&lt;br style=&quot;font-size: 8px;&quot;&gt;10.4.88.61:9393&lt;div data-en-clipboard=&quot;true&quot; data-pm-slice=&quot;1 1 []&quot; style=&quot;font-size: 8px;&quot;&gt;10.4.88.147:9393&lt;br style=&quot;font-size: 8px;&quot;&gt;&lt;/div&gt;&lt;div data-en-clipboard=&quot;true&quot; data-pm-slice=&quot;1 1 []&quot; style=&quot;font-size: 8px;&quot;&gt;10.4.88.148:9393&lt;br style=&quot;font-size: 8px;&quot;&gt;&lt;/div&gt;" style="rounded=0;whiteSpace=wrap;html=1;labelBorderColor=none;fontSize=8;strokeColor=#67AB9F;align=left;dashed=1;strokeWidth=1;dashPattern=1 4;fontColor=#4D8077;" parent="1" vertex="1">
          <mxGeometry x="420.00000000000006" y="661" width="84.8" height="40" as="geometry" />
        </mxCell>
        <mxCell id="X6f6DRB3DddGBT53lCf2-51" value="Servidores&lt;br style=&quot;font-size: 8px;&quot;&gt;10.4.88.61:8080&lt;br&gt;10.4.88.147:8080&lt;div data-en-clipboard=&quot;true&quot; data-pm-slice=&quot;1 1 []&quot; style=&quot;font-size: 8px;&quot;&gt;10.4.88.148:8080&lt;br&gt;&lt;/div&gt;" style="rounded=0;whiteSpace=wrap;html=1;labelBorderColor=none;fontSize=8;align=left;dashed=1;strokeWidth=1;dashPattern=1 4;fontColor=#997E8F;strokeColor=#B5739D;" parent="1" vertex="1">
          <mxGeometry x="179.9999999999999" y="661" width="84.8" height="40" as="geometry" />
        </mxCell>
        <mxCell id="X6f6DRB3DddGBT53lCf2-130" style="edgeStyle=orthogonalEdgeStyle;rounded=0;orthogonalLoop=1;jettySize=auto;html=1;exitX=0.5;exitY=1;exitDx=0;exitDy=0;strokeColor=#B3B3B3;" parent="1" source="X6f6DRB3DddGBT53lCf2-52" target="X6f6DRB3DddGBT53lCf2-58" edge="1">
          <mxGeometry relative="1" as="geometry" />
        </mxCell>
        <mxCell id="X6f6DRB3DddGBT53lCf2-133" style="edgeStyle=orthogonalEdgeStyle;rounded=0;orthogonalLoop=1;jettySize=auto;html=1;exitX=1;exitY=0.5;exitDx=0;exitDy=0;strokeColor=#808080;" parent="1" source="X6f6DRB3DddGBT53lCf2-52" target="X6f6DRB3DddGBT53lCf2-56" edge="1">
          <mxGeometry relative="1" as="geometry" />
        </mxCell>
        <mxCell id="X6f6DRB3DddGBT53lCf2-52" value="" style="rounded=0;whiteSpace=wrap;html=1;labelBorderColor=none;fontSize=11;strokeWidth=1;strokeColor=#B5739D;shadow=1;fontStyle=1;align=center;" parent="1" vertex="1">
          <mxGeometry x="180" y="550" width="220" height="92" as="geometry" />
        </mxCell>
        <mxCell id="X6f6DRB3DddGBT53lCf2-128" style="edgeStyle=orthogonalEdgeStyle;rounded=0;orthogonalLoop=1;jettySize=auto;html=1;exitX=0.75;exitY=1;exitDx=0;exitDy=0;entryX=0.75;entryY=0;entryDx=0;entryDy=0;strokeColor=#B3B3B3;" parent="1" source="X6f6DRB3DddGBT53lCf2-53" target="X6f6DRB3DddGBT53lCf2-47" edge="1">
          <mxGeometry relative="1" as="geometry" />
        </mxCell>
        <mxCell id="X6f6DRB3DddGBT53lCf2-53" value="" style="rounded=0;whiteSpace=wrap;html=1;labelBorderColor=none;fontSize=11;fillColor=default;shadow=1;strokeColor=#FF9999;" parent="1" vertex="1">
          <mxGeometry x="657.37" y="701" width="162.63" height="159" as="geometry" />
        </mxCell>
        <mxCell id="X6f6DRB3DddGBT53lCf2-54" value="" style="rounded=0;whiteSpace=wrap;html=1;labelBorderColor=none;fontSize=11;fillColor=default;strokeColor=#59759E;strokeWidth=1;shadow=1;" parent="1" vertex="1">
          <mxGeometry x="180" y="899" width="460" height="121" as="geometry" />
        </mxCell>
        <mxCell id="X6f6DRB3DddGBT53lCf2-56" value="" style="rounded=0;whiteSpace=wrap;html=1;labelBorderColor=none;fontSize=11;fillColor=default;strokeColor=#67AB9F;shadow=1;" parent="1" vertex="1">
          <mxGeometry x="420" y="700" width="220" height="160" as="geometry" />
        </mxCell>
        <mxCell id="X6f6DRB3DddGBT53lCf2-58" value="" style="rounded=0;whiteSpace=wrap;html=1;labelBorderColor=none;fontSize=11;strokeWidth=1;strokeColor=#B5739D;shadow=1;" parent="1" vertex="1">
          <mxGeometry x="180" y="700" width="220" height="160" as="geometry" />
        </mxCell>
        <mxCell id="X6f6DRB3DddGBT53lCf2-59" value="notifyexternal-queue&lt;br style=&quot;border-color: var(--border-color); font-size: 9px;&quot;&gt;notifyexternal-recharge-transform&lt;br style=&quot;border-color: var(--border-color); font-size: 9px;&quot;&gt;notifyexternal-recharge-streaming" style="rounded=0;whiteSpace=wrap;html=1;labelBorderColor=none;fontSize=9;strokeColor=#000000;fillColor=default;align=center;dashed=1;dashPattern=1 4;" parent="1" vertex="1">
          <mxGeometry x="210" y="740" width="158.93" height="40" as="geometry" />
        </mxCell>
        <mxCell id="X6f6DRB3DddGBT53lCf2-60" value="Rutas" style="text;html=1;strokeColor=none;fillColor=none;align=center;verticalAlign=middle;whiteSpace=wrap;rounded=0;fontStyle=1;fontSize=10;" parent="1" vertex="1">
          <mxGeometry x="184.45000000000005" y="720" width="159.91" height="20" as="geometry" />
        </mxCell>
        <mxCell id="X6f6DRB3DddGBT53lCf2-61" style="edgeStyle=orthogonalEdgeStyle;shape=link;rounded=0;orthogonalLoop=1;jettySize=auto;html=1;exitX=0.5;exitY=0;exitDx=0;exitDy=0;entryX=0.5;entryY=1;entryDx=0;entryDy=0;strokeColor=#990099;strokeWidth=1;fontSize=12;fontColor=#7ece78;" parent="1" source="X6f6DRB3DddGBT53lCf2-62" target="X6f6DRB3DddGBT53lCf2-59" edge="1">
          <mxGeometry relative="1" as="geometry" />
        </mxCell>
        <mxCell id="X6f6DRB3DddGBT53lCf2-62" value="campaign-integration" style="rounded=1;whiteSpace=wrap;html=1;labelBorderColor=none;fontSize=12;fontStyle=1;fillStyle=auto;fillColor=#e1d5e7;strokeColor=#9673a6;strokeWidth=1;glass=0;shadow=1;" parent="1" vertex="1">
          <mxGeometry x="210" y="780" width="158.93" height="50" as="geometry" />
        </mxCell>
        <mxCell id="X6f6DRB3DddGBT53lCf2-122" style="edgeStyle=orthogonalEdgeStyle;rounded=1;orthogonalLoop=1;jettySize=auto;html=1;exitX=0.5;exitY=0;exitDx=0;exitDy=0;exitPerimeter=0;strokeColor=#B3B3B3;entryX=0.25;entryY=1;entryDx=0;entryDy=0;" parent="1" source="X6f6DRB3DddGBT53lCf2-64" target="X6f6DRB3DddGBT53lCf2-70" edge="1">
          <mxGeometry relative="1" as="geometry" />
        </mxCell>
        <mxCell id="X6f6DRB3DddGBT53lCf2-64" value="&lt;div data-en-clipboard=&quot;true&quot; data-pm-slice=&quot;1 1 []&quot;&gt;streaming-notifyexternal-campaign&lt;/div&gt;" style="shape=cylinder3;whiteSpace=wrap;html=1;boundedLbl=1;backgroundOutline=1;size=5.179655172413504;labelBorderColor=none;fontSize=11;fillColor=#dae8fc;direction=south;strokeColor=#6c8ebf;strokeWidth=1;fontStyle=1;shadow=1;" parent="1" vertex="1">
          <mxGeometry x="362.87" y="932" width="97.13" height="50" as="geometry" />
        </mxCell>
        <mxCell id="X6f6DRB3DddGBT53lCf2-65" style="edgeStyle=orthogonalEdgeStyle;shape=link;rounded=0;orthogonalLoop=1;jettySize=auto;html=1;exitX=0.5;exitY=1;exitDx=0;exitDy=0;entryX=0.5;entryY=0;entryDx=0;entryDy=0;strokeColor=#990099;strokeWidth=1;fontSize=12;fontColor=#7ece78;" parent="1" edge="1">
          <mxGeometry relative="1" as="geometry">
            <mxPoint x="455.9100000000001" y="780" as="sourcePoint" />
            <mxPoint x="456.4000000000001" y="780" as="targetPoint" />
          </mxGeometry>
        </mxCell>
        <mxCell id="X6f6DRB3DddGBT53lCf2-69" value="CAMEL" style="text;html=1;strokeColor=none;fillColor=none;align=left;verticalAlign=middle;whiteSpace=wrap;rounded=0;fontStyle=1;fontSize=13;" parent="1" vertex="1">
          <mxGeometry x="178.87000000000012" y="700" width="60" height="20" as="geometry" />
        </mxCell>
        <mxCell id="X6f6DRB3DddGBT53lCf2-124" style="edgeStyle=orthogonalEdgeStyle;rounded=0;orthogonalLoop=1;jettySize=auto;html=1;exitX=0.75;exitY=1;exitDx=0;exitDy=0;strokeColor=#B3B3B3;" parent="1" source="X6f6DRB3DddGBT53lCf2-70" target="X6f6DRB3DddGBT53lCf2-101" edge="1">
          <mxGeometry relative="1" as="geometry" />
        </mxCell>
        <mxCell id="X6f6DRB3DddGBT53lCf2-70" value="&lt;div data-en-clipboard=&quot;true&quot; data-pm-slice=&quot;1 1 []&quot; style=&quot;font-size: 12px;&quot;&gt;recharge-bonus-stream&lt;/div&gt;" style="rounded=1;whiteSpace=wrap;html=1;labelBorderColor=none;strokeColor=#0e8088;strokeWidth=1;fontSize=12;fillColor=#b0e3e6;fontStyle=1;shadow=1;" parent="1" vertex="1">
          <mxGeometry x="451.49000000000007" y="760" width="157.02" height="45" as="geometry" />
        </mxCell>
        <mxCell id="X6f6DRB3DddGBT53lCf2-71" style="edgeStyle=orthogonalEdgeStyle;rounded=1;orthogonalLoop=1;jettySize=auto;html=1;exitX=0.5;exitY=0;exitDx=0;exitDy=0;exitPerimeter=0;entryX=0;entryY=0.5;entryDx=0;entryDy=0;fillColor=#bac8d3;strokeColor=#B3B3B3;" parent="1" source="X6f6DRB3DddGBT53lCf2-101" target="X6f6DRB3DddGBT53lCf2-91" edge="1">
          <mxGeometry relative="1" as="geometry">
            <mxPoint x="894.1800000000001" y="900" as="targetPoint" />
            <Array as="points">
              <mxPoint x="630" y="957" />
              <mxPoint x="630" y="760" />
            </Array>
          </mxGeometry>
        </mxCell>
        <mxCell id="X6f6DRB3DddGBT53lCf2-72" value="SCDF" style="text;html=1;strokeColor=none;fillColor=none;align=left;verticalAlign=middle;whiteSpace=wrap;rounded=0;fontStyle=1;fontSize=13;" parent="1" vertex="1">
          <mxGeometry x="420.00000000000006" y="700" width="60" height="20" as="geometry" />
        </mxCell>
        <mxCell id="X6f6DRB3DddGBT53lCf2-73" value="KAFKA" style="text;html=1;strokeColor=none;fillColor=none;align=left;verticalAlign=middle;whiteSpace=wrap;rounded=0;fontStyle=1;fontSize=13;" parent="1" vertex="1">
          <mxGeometry x="180.0000000000001" y="899" width="60" height="20" as="geometry" />
        </mxCell>
        <mxCell id="X6f6DRB3DddGBT53lCf2-74" value="OPENSHIFT" style="text;html=1;strokeColor=none;fillColor=none;align=left;verticalAlign=middle;whiteSpace=wrap;rounded=0;fontStyle=1;fontSize=13;" parent="1" vertex="1">
          <mxGeometry x="657.37" y="700" width="78.06" height="20" as="geometry" />
        </mxCell>
        <mxCell id="X6f6DRB3DddGBT53lCf2-75" value="Stream" style="text;html=1;strokeColor=none;fillColor=none;align=left;verticalAlign=middle;whiteSpace=wrap;rounded=0;fontStyle=1;fontSize=10;" parent="1" vertex="1">
          <mxGeometry x="451.49000000000007" y="740" width="60" height="20" as="geometry" />
        </mxCell>
        <mxCell id="X6f6DRB3DddGBT53lCf2-132" style="edgeStyle=orthogonalEdgeStyle;rounded=0;orthogonalLoop=1;jettySize=auto;html=1;exitX=0.5;exitY=1;exitDx=0;exitDy=0;entryX=0.5;entryY=0;entryDx=0;entryDy=0;strokeColor=#B3B3B3;" parent="1" source="X6f6DRB3DddGBT53lCf2-77" target="X6f6DRB3DddGBT53lCf2-56" edge="1">
          <mxGeometry relative="1" as="geometry" />
        </mxCell>
        <mxCell id="X6f6DRB3DddGBT53lCf2-77" value="&lt;div data-en-clipboard=&quot;true&quot; data-pm-slice=&quot;1 1 []&quot; style=&quot;font-size: 7px;&quot;&gt;&lt;br&gt;&lt;/div&gt;" style="rounded=0;whiteSpace=wrap;html=1;labelBorderColor=none;fontSize=7;strokeWidth=1;shadow=1;fontStyle=1;align=left;strokeColor=#FF0000;" parent="1" vertex="1">
          <mxGeometry x="420" y="550" width="220" height="92" as="geometry" />
        </mxCell>
        <mxCell id="X6f6DRB3DddGBT53lCf2-78" style="edgeStyle=elbowEdgeStyle;rounded=1;sketch=0;orthogonalLoop=1;jettySize=auto;elbow=vertical;html=1;exitX=1;exitY=0.5;exitDx=0;exitDy=0;shadow=0;strokeColor=#000000;strokeWidth=1;fontSize=13;fontColor=#7ece78;" parent="1" source="X6f6DRB3DddGBT53lCf2-77" target="X6f6DRB3DddGBT53lCf2-77" edge="1">
          <mxGeometry relative="1" as="geometry" />
        </mxCell>
        <mxCell id="X6f6DRB3DddGBT53lCf2-79" value="REDIS" style="text;html=1;strokeColor=none;fillColor=none;align=left;verticalAlign=middle;whiteSpace=wrap;rounded=0;fontStyle=1;fontSize=13;" parent="1" vertex="1">
          <mxGeometry x="419.99999999999994" y="550" width="60" height="20" as="geometry" />
        </mxCell>
        <mxCell id="X6f6DRB3DddGBT53lCf2-80" value="ORACLE - SCHEMA: CAMPSYS" style="text;html=1;strokeColor=none;fillColor=none;align=left;verticalAlign=middle;whiteSpace=wrap;rounded=0;fontStyle=1;fontSize=13;" parent="1" vertex="1">
          <mxGeometry x="180.00000000000003" y="550" width="200" height="20" as="geometry" />
        </mxCell>
        <mxCell id="X6f6DRB3DddGBT53lCf2-81" value="CUSTOMER_CONTACT" style="rounded=1;whiteSpace=wrap;html=1;labelBorderColor=none;fontSize=9;strokeWidth=1;strokeColor=#b85450;shadow=1;fontStyle=0;align=center;fillColor=#FFF1ED;" parent="1" vertex="1">
          <mxGeometry x="200" y="585" width="180" height="20" as="geometry" />
        </mxCell>
        <mxCell id="X6f6DRB3DddGBT53lCf2-82" style="edgeStyle=orthogonalEdgeStyle;rounded=1;orthogonalLoop=1;jettySize=auto;html=1;exitX=0.5;exitY=1;exitDx=0;exitDy=0;entryX=0.5;entryY=1;entryDx=0;entryDy=0;entryPerimeter=0;strokeColor=#FF99CC;strokeWidth=1;fontSize=8;fontColor=#EA6B66;dashed=1;dashPattern=1 1;" parent="1" source="X6f6DRB3DddGBT53lCf2-83" target="X6f6DRB3DddGBT53lCf2-98" edge="1">
          <mxGeometry relative="1" as="geometry" />
        </mxCell>
        <mxCell id="X6f6DRB3DddGBT53lCf2-83" value="Eventos &lt;br&gt;de &lt;br&gt;Notificaciones Externas" style="rounded=1;whiteSpace=wrap;html=1;labelBorderColor=none;strokeWidth=1;fontSize=8;shadow=1;glass=0;strokeColor=#FF99CC;dashed=1;dashPattern=1 1;fillColor=#FFF2F9;" parent="1" vertex="1">
          <mxGeometry x="109.34000000000003" y="700" width="55.02" height="160" as="geometry" />
        </mxCell>
        <mxCell id="X6f6DRB3DddGBT53lCf2-85" value="apps.ocpprod.gp.inet" style="rounded=0;whiteSpace=wrap;html=1;labelBorderColor=none;fontSize=8;strokeColor=#CC0000;align=left;dashed=1;strokeWidth=1;dashPattern=1 4;fontColor=#CC0000;" parent="1" vertex="1">
          <mxGeometry x="657.37" y="683" width="84.8" height="18" as="geometry" />
        </mxCell>
        <mxCell id="X6f6DRB3DddGBT53lCf2-86" value="&lt;div data-en-clipboard=&quot;true&quot; data-pm-slice=&quot;1 1 []&quot; style=&quot;font-size: 11px;&quot;&gt;&lt;p class=&quot;MsoNormal&quot; style=&quot;font-size: 11px;&quot;&gt;&lt;i style=&quot;font-size: 11px;&quot;&gt;prepaid-allowance&lt;/i&gt;&lt;/p&gt;&lt;/div&gt;" style="rounded=1;whiteSpace=wrap;html=1;labelBorderColor=none;strokeColor=#b85450;strokeWidth=1;fontSize=11;fillColor=#f8cecc;shadow=1;fontStyle=1" parent="1" vertex="1">
          <mxGeometry x="684.25" y="805" width="108.87" height="33" as="geometry" />
        </mxCell>
        <mxCell id="X6f6DRB3DddGBT53lCf2-89" value="esbprodbm.simple.gp.inet" style="rounded=0;whiteSpace=wrap;html=1;labelBorderColor=none;fontSize=8;strokeColor=#0066CC;align=left;dashed=1;strokeWidth=1;dashPattern=1 4;fontColor=#0066CC;" parent="1" vertex="1">
          <mxGeometry x="657.37" y="881" width="106" height="18" as="geometry" />
        </mxCell>
        <mxCell id="X6f6DRB3DddGBT53lCf2-90" style="edgeStyle=orthogonalEdgeStyle;rounded=0;orthogonalLoop=1;jettySize=auto;html=1;exitX=0.5;exitY=1;exitDx=0;exitDy=0;entryX=0.5;entryY=0;entryDx=0;entryDy=0;" parent="1" source="X6f6DRB3DddGBT53lCf2-91" target="X6f6DRB3DddGBT53lCf2-86" edge="1">
          <mxGeometry relative="1" as="geometry" />
        </mxCell>
        <mxCell id="X6f6DRB3DddGBT53lCf2-91" value="&lt;div data-en-clipboard=&quot;true&quot; data-pm-slice=&quot;1 1 []&quot; style=&quot;font-size: 11px;&quot;&gt;&lt;p class=&quot;MsoNormal&quot; style=&quot;font-size: 11px;&quot;&gt;&lt;i style=&quot;border-color: var(--border-color);&quot;&gt;provisioning-api&lt;/i&gt;&lt;br&gt;&lt;/p&gt;&lt;/div&gt;" style="rounded=1;whiteSpace=wrap;html=1;labelBorderColor=none;strokeColor=#b85450;strokeWidth=1;fontSize=11;fillColor=#f8cecc;shadow=1;fontStyle=1" parent="1" vertex="1">
          <mxGeometry x="684.25" y="741" width="108.87" height="38" as="geometry" />
        </mxCell>
        <mxCell id="X6f6DRB3DddGBT53lCf2-97" style="edgeStyle=orthogonalEdgeStyle;rounded=1;orthogonalLoop=1;jettySize=auto;html=1;exitX=0.5;exitY=0;exitDx=0;exitDy=0;exitPerimeter=0;entryX=0.75;entryY=1;entryDx=0;entryDy=0;strokeColor=#B3B3B3;" parent="1" source="X6f6DRB3DddGBT53lCf2-98" target="X6f6DRB3DddGBT53lCf2-62" edge="1">
          <mxGeometry relative="1" as="geometry" />
        </mxCell>
        <mxCell id="X6f6DRB3DddGBT53lCf2-98" value="queue-notifyexternal-campaign" style="shape=cylinder3;whiteSpace=wrap;html=1;boundedLbl=1;backgroundOutline=1;size=7.470000000000255;labelBorderColor=none;fontSize=11;fillColor=#dae8fc;direction=south;strokeColor=#6c8ebf;strokeWidth=1;fontStyle=1;shadow=1;" parent="1" vertex="1">
          <mxGeometry x="198.3400000000001" y="932" width="111.07" height="50" as="geometry" />
        </mxCell>
        <mxCell id="X6f6DRB3DddGBT53lCf2-99" style="edgeStyle=orthogonalEdgeStyle;rounded=1;orthogonalLoop=1;jettySize=auto;html=1;exitX=0.75;exitY=1;exitDx=0;exitDy=0;entryX=0.5;entryY=1;entryDx=0;entryDy=0;entryPerimeter=0;strokeColor=#B3B3B3;" parent="1" target="X6f6DRB3DddGBT53lCf2-64" edge="1">
          <mxGeometry relative="1" as="geometry">
            <mxPoint x="347.8100000000002" y="830" as="sourcePoint" />
            <Array as="points">
              <mxPoint x="347.93000000000006" y="957" />
            </Array>
          </mxGeometry>
        </mxCell>
        <mxCell id="X6f6DRB3DddGBT53lCf2-101" value="&lt;div data-en-clipboard=&quot;true&quot; data-pm-slice=&quot;1 1 []&quot;&gt;&lt;div data-en-clipboard=&quot;true&quot; data-pm-slice=&quot;1 1 []&quot;&gt;queue-provisioning-api&lt;/div&gt;&lt;/div&gt;" style="shape=cylinder3;whiteSpace=wrap;html=1;boundedLbl=1;backgroundOutline=1;size=4.974729352678651;labelBorderColor=none;fontSize=11;fillColor=#dae8fc;direction=south;strokeColor=#6c8ebf;strokeWidth=1;fontStyle=1;shadow=1;" parent="1" vertex="1">
          <mxGeometry x="528.24" y="932" width="82.27" height="50" as="geometry" />
        </mxCell>
        <mxCell id="X6f6DRB3DddGBT53lCf2-110" value="&lt;div style=&quot;border-color: var(--border-color); text-align: left; font-size: 6.5px;&quot; data-en-clipboard=&quot;true&quot; data-pm-slice=&quot;1 1 []&quot;&gt;&lt;div style=&quot;border-color: var(--border-color); font-size: 6.5px;&quot; data-en-clipboard=&quot;true&quot; data-pm-slice=&quot;1 1 []&quot;&gt;&lt;div style=&quot;border-color: var(--border-color); font-size: 6.5px;&quot; data-en-clipboard=&quot;true&quot; data-pm-slice=&quot;1 1 []&quot;&gt;S:CAMPAIGNS:RECHARGE_BONUS:WHITELIST.PHONENUMBER&lt;/div&gt;&lt;div style=&quot;border-color: var(--border-color); font-size: 6.5px;&quot; data-en-clipboard=&quot;true&quot; data-pm-slice=&quot;1 1 []&quot;&gt;H:CAMPAINGS:SUBSCRIBERS.PHONENUMBER&lt;/div&gt;&lt;div style=&quot;border-color: var(--border-color); font-size: 6.5px;&quot; data-en-clipboard=&quot;true&quot; data-pm-slice=&quot;1 1 []&quot;&gt;H:CAMPAIGNS:RECHARGE_BONUS:PROMOTION.ID&lt;/div&gt;&lt;/div&gt;&lt;/div&gt;" style="rounded=1;whiteSpace=wrap;html=1;labelBorderColor=none;fontSize=6.5;strokeWidth=1;strokeColor=#b85450;shadow=1;fontStyle=0;align=center;fillColor=#f8cecc;arcSize=17;" parent="1" vertex="1">
          <mxGeometry x="428" y="571.25" width="204" height="49.5" as="geometry" />
        </mxCell>
        <mxCell id="X6f6DRB3DddGBT53lCf2-113" value="ESB" style="text;html=1;strokeColor=none;fillColor=none;align=left;verticalAlign=middle;whiteSpace=wrap;rounded=0;fontStyle=1;fontSize=13;" parent="1" vertex="1">
          <mxGeometry x="657.3700000000002" y="900" width="78.06" height="20" as="geometry" />
        </mxCell>
        <mxCell id="X6f6DRB3DddGBT53lCf2-126" style="edgeStyle=orthogonalEdgeStyle;rounded=0;orthogonalLoop=1;jettySize=auto;html=1;exitX=0.5;exitY=1;exitDx=0;exitDy=0;exitPerimeter=0;entryX=0.5;entryY=0;entryDx=0;entryDy=0;" parent="1" source="X6f6DRB3DddGBT53lCf2-115" target="X6f6DRB3DddGBT53lCf2-116" edge="1">
          <mxGeometry relative="1" as="geometry" />
        </mxCell>
        <mxCell id="X6f6DRB3DddGBT53lCf2-115" value="&lt;font style=&quot;font-size: 9px;&quot;&gt;Allowance Management&lt;br style=&quot;&quot;&gt;&lt;/font&gt;&lt;b style=&quot;font-size: 7px;&quot;&gt;/SolutionManagement/&lt;br style=&quot;&quot;&gt;OfferManagement/&lt;br style=&quot;&quot;&gt;AllowanceManagement/V1/V3&lt;/b&gt;" style="rounded=0;whiteSpace=wrap;html=1;labelBorderColor=none;fontSize=8;fillColor=#b1ddf0;shadow=1;strokeColor=#10739e;points=[[0,0,0,0,0],[0,0.25,0,0,0],[0,0.3,0,0,0],[0,0.5,0,0,0],[0,0.55,0,0,0],[0,0.75,0,0,0],[0,1,0,0,0],[0.25,0,0,0,0],[0.25,1,0,0,0],[0.5,0,0,0,0],[0.5,1,0,0,0],[0.75,0,0,0,0],[0.75,1,0,0,0],[1,0,0,0,0],[1,0.25,0,0,0],[1,0.5,0,0,0],[1,0.75,0,0,0],[1,1,0,0,0]];" parent="1" vertex="1">
          <mxGeometry x="677.98" y="926" width="125.39" height="48" as="geometry" />
        </mxCell>
        <mxCell id="X6f6DRB3DddGBT53lCf2-116" value="Aprovisionamiento de Bono" style="rounded=0;whiteSpace=wrap;html=1;shadow=1;glass=0;labelBorderColor=none;sketch=0;strokeWidth=1;fontSize=10;fillColor=#0050ef;strokeColor=#001DBC;fontColor=#ffffff;" parent="1" vertex="1">
          <mxGeometry x="677.98" y="988" width="125.39" height="20" as="geometry" />
        </mxCell>
        <mxCell id="X6f6DRB3DddGBT53lCf2-129" value="NOTIFEXT_EVENTS" style="rounded=1;whiteSpace=wrap;html=1;labelBorderColor=none;fontSize=9;strokeWidth=1;strokeColor=#b85450;shadow=1;fontStyle=0;align=center;fillColor=#FFF1ED;" parent="1" vertex="1">
          <mxGeometry x="198.34" y="609.5" width="181.66" height="20" as="geometry" />
        </mxCell>
      </root>
    </mxGraphModel>
  </diagram>
  <diagram id="tPcpJuJGr6aZtGZ1xK3_" name="Página-2">
    <mxGraphModel dx="1379" dy="793" grid="1" gridSize="10" guides="1" tooltips="1" connect="1" arrows="1" fold="1" page="1" pageScale="1" pageWidth="1654" pageHeight="1169" math="0" shadow="0">
      <root>
        <mxCell id="0" />
        <mxCell id="1" parent="0" />
        <mxCell id="OuoGvUPbHA11eBhm7Cp8-1" value="&lt;p style=&quot;margin-left:36.0000pt;text-indent:-18.0000pt;mso-list:l0 level1 lfo1;&quot; class=&quot;15&quot;&gt;&lt;br&gt;&lt;/p&gt;" style="rounded=0;whiteSpace=wrap;html=1;shadow=0;glass=0;labelBorderColor=none;sketch=0;fillStyle=auto;strokeColor=#000000;strokeWidth=1;fontSize=13;fontColor=#7ece78;fillColor=default;" vertex="1" parent="1">
          <mxGeometry x="80" y="520" width="790" height="560" as="geometry" />
        </mxCell>
        <mxCell id="OuoGvUPbHA11eBhm7Cp8-2" value="" style="rounded=0;whiteSpace=wrap;html=1;labelBorderColor=none;fontSize=11;fillColor=default;shadow=1;strokeColor=#3399FF;" vertex="1" parent="1">
          <mxGeometry x="657.37" y="900" width="162.63" height="120" as="geometry" />
        </mxCell>
        <mxCell id="OuoGvUPbHA11eBhm7Cp8-3" value="Servidores&lt;br style=&quot;font-size: 8px;&quot;&gt;&lt;div&gt;10.4.88.61&lt;/div&gt;&lt;div&gt;10.4.88.147&lt;/div&gt;&lt;div&gt;10.4.88.148&lt;/div&gt;" style="rounded=0;whiteSpace=wrap;html=1;labelBorderColor=none;fontSize=8;strokeColor=#EA6B66;align=left;dashed=1;strokeWidth=1;dashPattern=1 4;fontColor=#EA6B66;" vertex="1" parent="1">
          <mxGeometry x="640.0000000000002" y="603" width="48.53" height="40" as="geometry" />
        </mxCell>
        <mxCell id="OuoGvUPbHA11eBhm7Cp8-4" value="Servidores&lt;br style=&quot;font-size: 8px;&quot;&gt;&lt;div&gt;10.4.88.109,&amp;nbsp;&lt;span style=&quot;background-color: initial;&quot;&gt;10.4.88.119,&lt;/span&gt;&lt;/div&gt;&lt;div&gt;&lt;div style=&quot;border-color: var(--border-color);&quot;&gt;10.4.88.138,&amp;nbsp;&lt;span style=&quot;background-color: initial;&quot;&gt;10.4.88.144&lt;/span&gt;&lt;/div&gt;&lt;/div&gt;" style="rounded=0;whiteSpace=wrap;html=1;labelBorderColor=none;fontSize=8;strokeColor=#004C99;align=left;dashed=1;strokeWidth=1;dashPattern=1 4;fontColor=#004C99;" vertex="1" parent="1">
          <mxGeometry x="180.0000000000001" y="1020" width="104.57" height="30" as="geometry" />
        </mxCell>
        <mxCell id="OuoGvUPbHA11eBhm7Cp8-5" value="Servidores&lt;br style=&quot;font-size: 8px;&quot;&gt;10.4.88.61:9393&lt;div data-en-clipboard=&quot;true&quot; data-pm-slice=&quot;1 1 []&quot; style=&quot;font-size: 8px;&quot;&gt;10.4.88.147:9393&lt;br style=&quot;font-size: 8px;&quot;&gt;&lt;/div&gt;&lt;div data-en-clipboard=&quot;true&quot; data-pm-slice=&quot;1 1 []&quot; style=&quot;font-size: 8px;&quot;&gt;10.4.88.148:9393&lt;br style=&quot;font-size: 8px;&quot;&gt;&lt;/div&gt;" style="rounded=0;whiteSpace=wrap;html=1;labelBorderColor=none;fontSize=8;strokeColor=#67AB9F;align=left;dashed=1;strokeWidth=1;dashPattern=1 4;fontColor=#4D8077;" vertex="1" parent="1">
          <mxGeometry x="420.00000000000006" y="661" width="84.8" height="40" as="geometry" />
        </mxCell>
        <mxCell id="OuoGvUPbHA11eBhm7Cp8-6" value="Servidores&lt;br style=&quot;font-size: 8px;&quot;&gt;10.4.88.61:8080&lt;br&gt;10.4.88.147:8080&lt;div data-en-clipboard=&quot;true&quot; data-pm-slice=&quot;1 1 []&quot; style=&quot;font-size: 8px;&quot;&gt;10.4.88.148:8080&lt;br&gt;&lt;/div&gt;" style="rounded=0;whiteSpace=wrap;html=1;labelBorderColor=none;fontSize=8;align=left;dashed=1;strokeWidth=1;dashPattern=1 4;fontColor=#997E8F;strokeColor=#B5739D;" vertex="1" parent="1">
          <mxGeometry x="179.9999999999999" y="661" width="84.8" height="40" as="geometry" />
        </mxCell>
        <mxCell id="OuoGvUPbHA11eBhm7Cp8-7" style="edgeStyle=orthogonalEdgeStyle;rounded=0;orthogonalLoop=1;jettySize=auto;html=1;exitX=0.5;exitY=1;exitDx=0;exitDy=0;strokeColor=#B3B3B3;" edge="1" parent="1" source="OuoGvUPbHA11eBhm7Cp8-9" target="OuoGvUPbHA11eBhm7Cp8-14">
          <mxGeometry relative="1" as="geometry" />
        </mxCell>
        <mxCell id="OuoGvUPbHA11eBhm7Cp8-8" style="edgeStyle=orthogonalEdgeStyle;rounded=0;orthogonalLoop=1;jettySize=auto;html=1;exitX=1;exitY=0.5;exitDx=0;exitDy=0;strokeColor=#808080;" edge="1" parent="1" source="OuoGvUPbHA11eBhm7Cp8-9" target="OuoGvUPbHA11eBhm7Cp8-13">
          <mxGeometry relative="1" as="geometry" />
        </mxCell>
        <mxCell id="OuoGvUPbHA11eBhm7Cp8-9" value="" style="rounded=0;whiteSpace=wrap;html=1;labelBorderColor=none;fontSize=11;strokeWidth=1;strokeColor=#B5739D;shadow=1;fontStyle=1;align=center;" vertex="1" parent="1">
          <mxGeometry x="180" y="550" width="220" height="92" as="geometry" />
        </mxCell>
        <mxCell id="OuoGvUPbHA11eBhm7Cp8-10" style="edgeStyle=orthogonalEdgeStyle;rounded=0;orthogonalLoop=1;jettySize=auto;html=1;exitX=0.75;exitY=1;exitDx=0;exitDy=0;entryX=0.75;entryY=0;entryDx=0;entryDy=0;strokeColor=#B3B3B3;" edge="1" parent="1" source="OuoGvUPbHA11eBhm7Cp8-11" target="OuoGvUPbHA11eBhm7Cp8-2">
          <mxGeometry relative="1" as="geometry" />
        </mxCell>
        <mxCell id="OuoGvUPbHA11eBhm7Cp8-11" value="" style="rounded=0;whiteSpace=wrap;html=1;labelBorderColor=none;fontSize=11;fillColor=default;shadow=1;strokeColor=#FF9999;" vertex="1" parent="1">
          <mxGeometry x="657.37" y="701" width="162.63" height="159" as="geometry" />
        </mxCell>
        <mxCell id="OuoGvUPbHA11eBhm7Cp8-12" value="" style="rounded=0;whiteSpace=wrap;html=1;labelBorderColor=none;fontSize=11;fillColor=default;strokeColor=#59759E;strokeWidth=1;shadow=1;" vertex="1" parent="1">
          <mxGeometry x="180" y="899" width="460" height="121" as="geometry" />
        </mxCell>
        <mxCell id="OuoGvUPbHA11eBhm7Cp8-13" value="" style="rounded=0;whiteSpace=wrap;html=1;labelBorderColor=none;fontSize=11;fillColor=default;strokeColor=#67AB9F;shadow=1;" vertex="1" parent="1">
          <mxGeometry x="420" y="700" width="220" height="160" as="geometry" />
        </mxCell>
        <mxCell id="OuoGvUPbHA11eBhm7Cp8-14" value="" style="rounded=0;whiteSpace=wrap;html=1;labelBorderColor=none;fontSize=11;strokeWidth=1;strokeColor=#B5739D;shadow=1;" vertex="1" parent="1">
          <mxGeometry x="180" y="700" width="220" height="160" as="geometry" />
        </mxCell>
        <mxCell id="OuoGvUPbHA11eBhm7Cp8-15" value="notifyexternal-queue&lt;br style=&quot;border-color: var(--border-color); font-size: 9px;&quot;&gt;notifyexternal-recharge-transform&lt;br style=&quot;border-color: var(--border-color); font-size: 9px;&quot;&gt;notifyexternal-recharge-streaming" style="rounded=0;whiteSpace=wrap;html=1;labelBorderColor=none;fontSize=9;strokeColor=#000000;fillColor=default;align=center;dashed=1;dashPattern=1 4;" vertex="1" parent="1">
          <mxGeometry x="210" y="740" width="158.93" height="40" as="geometry" />
        </mxCell>
        <mxCell id="OuoGvUPbHA11eBhm7Cp8-16" value="Rutas" style="text;html=1;strokeColor=none;fillColor=none;align=center;verticalAlign=middle;whiteSpace=wrap;rounded=0;fontStyle=1;fontSize=10;" vertex="1" parent="1">
          <mxGeometry x="184.45000000000005" y="720" width="159.91" height="20" as="geometry" />
        </mxCell>
        <mxCell id="OuoGvUPbHA11eBhm7Cp8-17" style="edgeStyle=orthogonalEdgeStyle;shape=link;rounded=0;orthogonalLoop=1;jettySize=auto;html=1;exitX=0.5;exitY=0;exitDx=0;exitDy=0;entryX=0.5;entryY=1;entryDx=0;entryDy=0;strokeColor=#990099;strokeWidth=1;fontSize=12;fontColor=#7ece78;" edge="1" parent="1" source="OuoGvUPbHA11eBhm7Cp8-18" target="OuoGvUPbHA11eBhm7Cp8-15">
          <mxGeometry relative="1" as="geometry" />
        </mxCell>
        <mxCell id="OuoGvUPbHA11eBhm7Cp8-18" value="campaign-integration" style="rounded=1;whiteSpace=wrap;html=1;labelBorderColor=none;fontSize=12;fontStyle=1;fillStyle=auto;fillColor=#e1d5e7;strokeColor=#9673a6;strokeWidth=1;glass=0;shadow=1;" vertex="1" parent="1">
          <mxGeometry x="210" y="780" width="158.93" height="50" as="geometry" />
        </mxCell>
        <mxCell id="OuoGvUPbHA11eBhm7Cp8-19" style="edgeStyle=orthogonalEdgeStyle;rounded=1;orthogonalLoop=1;jettySize=auto;html=1;exitX=0.5;exitY=0;exitDx=0;exitDy=0;exitPerimeter=0;strokeColor=#B3B3B3;entryX=0.25;entryY=1;entryDx=0;entryDy=0;" edge="1" parent="1" source="OuoGvUPbHA11eBhm7Cp8-20" target="OuoGvUPbHA11eBhm7Cp8-24">
          <mxGeometry relative="1" as="geometry" />
        </mxCell>
        <mxCell id="OuoGvUPbHA11eBhm7Cp8-20" value="&lt;div data-en-clipboard=&quot;true&quot; data-pm-slice=&quot;1 1 []&quot;&gt;streaming-notifyexternal-campaign&lt;/div&gt;" style="shape=cylinder3;whiteSpace=wrap;html=1;boundedLbl=1;backgroundOutline=1;size=5.179655172413504;labelBorderColor=none;fontSize=11;fillColor=#dae8fc;direction=south;strokeColor=#6c8ebf;strokeWidth=1;fontStyle=1;shadow=1;" vertex="1" parent="1">
          <mxGeometry x="362.87" y="932" width="97.13" height="50" as="geometry" />
        </mxCell>
        <mxCell id="OuoGvUPbHA11eBhm7Cp8-21" style="edgeStyle=orthogonalEdgeStyle;shape=link;rounded=0;orthogonalLoop=1;jettySize=auto;html=1;exitX=0.5;exitY=1;exitDx=0;exitDy=0;entryX=0.5;entryY=0;entryDx=0;entryDy=0;strokeColor=#990099;strokeWidth=1;fontSize=12;fontColor=#7ece78;" edge="1" parent="1">
          <mxGeometry relative="1" as="geometry">
            <mxPoint x="455.9100000000001" y="780" as="sourcePoint" />
            <mxPoint x="456.4000000000001" y="780" as="targetPoint" />
          </mxGeometry>
        </mxCell>
        <mxCell id="OuoGvUPbHA11eBhm7Cp8-22" value="CAMEL" style="text;html=1;strokeColor=none;fillColor=none;align=left;verticalAlign=middle;whiteSpace=wrap;rounded=0;fontStyle=1;fontSize=13;" vertex="1" parent="1">
          <mxGeometry x="178.87000000000012" y="700" width="60" height="20" as="geometry" />
        </mxCell>
        <mxCell id="OuoGvUPbHA11eBhm7Cp8-23" style="edgeStyle=orthogonalEdgeStyle;rounded=0;orthogonalLoop=1;jettySize=auto;html=1;exitX=0.75;exitY=1;exitDx=0;exitDy=0;strokeColor=#B3B3B3;" edge="1" parent="1" source="OuoGvUPbHA11eBhm7Cp8-24" target="OuoGvUPbHA11eBhm7Cp8-46">
          <mxGeometry relative="1" as="geometry" />
        </mxCell>
        <mxCell id="OuoGvUPbHA11eBhm7Cp8-24" value="&lt;div data-en-clipboard=&quot;true&quot; data-pm-slice=&quot;1 1 []&quot; style=&quot;font-size: 12px;&quot;&gt;recharge-bonus-stream&lt;/div&gt;" style="rounded=1;whiteSpace=wrap;html=1;labelBorderColor=none;strokeColor=#0e8088;strokeWidth=1;fontSize=12;fillColor=#b0e3e6;fontStyle=1;shadow=1;" vertex="1" parent="1">
          <mxGeometry x="451.49000000000007" y="760" width="157.02" height="45" as="geometry" />
        </mxCell>
        <mxCell id="OuoGvUPbHA11eBhm7Cp8-25" style="edgeStyle=orthogonalEdgeStyle;rounded=1;orthogonalLoop=1;jettySize=auto;html=1;exitX=0.5;exitY=0;exitDx=0;exitDy=0;exitPerimeter=0;entryX=0;entryY=0.5;entryDx=0;entryDy=0;fillColor=#bac8d3;strokeColor=#B3B3B3;" edge="1" parent="1" source="OuoGvUPbHA11eBhm7Cp8-46" target="OuoGvUPbHA11eBhm7Cp8-42">
          <mxGeometry relative="1" as="geometry">
            <mxPoint x="894.1800000000001" y="900" as="targetPoint" />
            <Array as="points">
              <mxPoint x="630" y="957" />
              <mxPoint x="630" y="760" />
            </Array>
          </mxGeometry>
        </mxCell>
        <mxCell id="OuoGvUPbHA11eBhm7Cp8-26" value="SCDF" style="text;html=1;strokeColor=none;fillColor=none;align=left;verticalAlign=middle;whiteSpace=wrap;rounded=0;fontStyle=1;fontSize=13;" vertex="1" parent="1">
          <mxGeometry x="420.00000000000006" y="700" width="60" height="20" as="geometry" />
        </mxCell>
        <mxCell id="OuoGvUPbHA11eBhm7Cp8-27" value="KAFKA" style="text;html=1;strokeColor=none;fillColor=none;align=left;verticalAlign=middle;whiteSpace=wrap;rounded=0;fontStyle=1;fontSize=13;" vertex="1" parent="1">
          <mxGeometry x="180.0000000000001" y="899" width="60" height="20" as="geometry" />
        </mxCell>
        <mxCell id="OuoGvUPbHA11eBhm7Cp8-28" value="OPENSHIFT" style="text;html=1;strokeColor=none;fillColor=none;align=left;verticalAlign=middle;whiteSpace=wrap;rounded=0;fontStyle=1;fontSize=13;" vertex="1" parent="1">
          <mxGeometry x="657.37" y="700" width="78.06" height="20" as="geometry" />
        </mxCell>
        <mxCell id="OuoGvUPbHA11eBhm7Cp8-29" value="Stream" style="text;html=1;strokeColor=none;fillColor=none;align=left;verticalAlign=middle;whiteSpace=wrap;rounded=0;fontStyle=1;fontSize=10;" vertex="1" parent="1">
          <mxGeometry x="451.49000000000007" y="740" width="60" height="20" as="geometry" />
        </mxCell>
        <mxCell id="OuoGvUPbHA11eBhm7Cp8-30" style="edgeStyle=orthogonalEdgeStyle;rounded=0;orthogonalLoop=1;jettySize=auto;html=1;exitX=0.5;exitY=1;exitDx=0;exitDy=0;entryX=0.5;entryY=0;entryDx=0;entryDy=0;strokeColor=#B3B3B3;" edge="1" parent="1" source="OuoGvUPbHA11eBhm7Cp8-31" target="OuoGvUPbHA11eBhm7Cp8-13">
          <mxGeometry relative="1" as="geometry" />
        </mxCell>
        <mxCell id="OuoGvUPbHA11eBhm7Cp8-31" value="&lt;div data-en-clipboard=&quot;true&quot; data-pm-slice=&quot;1 1 []&quot; style=&quot;font-size: 7px;&quot;&gt;&lt;br&gt;&lt;/div&gt;" style="rounded=0;whiteSpace=wrap;html=1;labelBorderColor=none;fontSize=7;strokeWidth=1;shadow=1;fontStyle=1;align=left;strokeColor=#FF0000;" vertex="1" parent="1">
          <mxGeometry x="420" y="550" width="220" height="92" as="geometry" />
        </mxCell>
        <mxCell id="OuoGvUPbHA11eBhm7Cp8-32" style="edgeStyle=elbowEdgeStyle;rounded=1;sketch=0;orthogonalLoop=1;jettySize=auto;elbow=vertical;html=1;exitX=1;exitY=0.5;exitDx=0;exitDy=0;shadow=0;strokeColor=#000000;strokeWidth=1;fontSize=13;fontColor=#7ece78;" edge="1" parent="1" source="OuoGvUPbHA11eBhm7Cp8-31" target="OuoGvUPbHA11eBhm7Cp8-31">
          <mxGeometry relative="1" as="geometry" />
        </mxCell>
        <mxCell id="OuoGvUPbHA11eBhm7Cp8-33" value="REDIS" style="text;html=1;strokeColor=none;fillColor=none;align=left;verticalAlign=middle;whiteSpace=wrap;rounded=0;fontStyle=1;fontSize=13;" vertex="1" parent="1">
          <mxGeometry x="419.99999999999994" y="550" width="60" height="20" as="geometry" />
        </mxCell>
        <mxCell id="OuoGvUPbHA11eBhm7Cp8-34" value="ORACLE - SCHEMA: CAMPSYS" style="text;html=1;strokeColor=none;fillColor=none;align=left;verticalAlign=middle;whiteSpace=wrap;rounded=0;fontStyle=1;fontSize=13;" vertex="1" parent="1">
          <mxGeometry x="180.00000000000003" y="550" width="200" height="20" as="geometry" />
        </mxCell>
        <mxCell id="OuoGvUPbHA11eBhm7Cp8-35" value="CUSTOMER_CONTACT" style="rounded=1;whiteSpace=wrap;html=1;labelBorderColor=none;fontSize=9;strokeWidth=1;strokeColor=#b85450;shadow=1;fontStyle=0;align=center;fillColor=#FFF1ED;" vertex="1" parent="1">
          <mxGeometry x="200" y="585" width="180" height="20" as="geometry" />
        </mxCell>
        <mxCell id="OuoGvUPbHA11eBhm7Cp8-36" style="edgeStyle=orthogonalEdgeStyle;rounded=1;orthogonalLoop=1;jettySize=auto;html=1;exitX=0.5;exitY=1;exitDx=0;exitDy=0;entryX=0.5;entryY=1;entryDx=0;entryDy=0;entryPerimeter=0;strokeColor=#FF99CC;strokeWidth=1;fontSize=8;fontColor=#EA6B66;dashed=1;dashPattern=1 1;" edge="1" parent="1" source="OuoGvUPbHA11eBhm7Cp8-37" target="OuoGvUPbHA11eBhm7Cp8-44">
          <mxGeometry relative="1" as="geometry" />
        </mxCell>
        <mxCell id="OuoGvUPbHA11eBhm7Cp8-37" value="Eventos &lt;br&gt;de &lt;br&gt;Notificaciones Externas" style="rounded=1;whiteSpace=wrap;html=1;labelBorderColor=none;strokeWidth=1;fontSize=8;shadow=1;glass=0;strokeColor=#FF99CC;dashed=1;dashPattern=1 1;fillColor=#FFF2F9;" vertex="1" parent="1">
          <mxGeometry x="109.34000000000003" y="700" width="55.02" height="160" as="geometry" />
        </mxCell>
        <mxCell id="OuoGvUPbHA11eBhm7Cp8-38" value="apps.ocpprod.gp.inet" style="rounded=0;whiteSpace=wrap;html=1;labelBorderColor=none;fontSize=8;strokeColor=#CC0000;align=left;dashed=1;strokeWidth=1;dashPattern=1 4;fontColor=#CC0000;" vertex="1" parent="1">
          <mxGeometry x="657.37" y="683" width="84.8" height="18" as="geometry" />
        </mxCell>
        <mxCell id="OuoGvUPbHA11eBhm7Cp8-39" value="&lt;div data-en-clipboard=&quot;true&quot; data-pm-slice=&quot;1 1 []&quot; style=&quot;font-size: 11px;&quot;&gt;&lt;p class=&quot;MsoNormal&quot; style=&quot;font-size: 11px;&quot;&gt;&lt;i style=&quot;font-size: 11px;&quot;&gt;prepaid-allowance&lt;/i&gt;&lt;/p&gt;&lt;/div&gt;" style="rounded=1;whiteSpace=wrap;html=1;labelBorderColor=none;strokeColor=#b85450;strokeWidth=1;fontSize=11;fillColor=#f8cecc;shadow=1;fontStyle=1" vertex="1" parent="1">
          <mxGeometry x="684.25" y="805" width="108.87" height="33" as="geometry" />
        </mxCell>
        <mxCell id="OuoGvUPbHA11eBhm7Cp8-40" value="esbprodbm.simple.gp.inet" style="rounded=0;whiteSpace=wrap;html=1;labelBorderColor=none;fontSize=8;strokeColor=#0066CC;align=left;dashed=1;strokeWidth=1;dashPattern=1 4;fontColor=#0066CC;" vertex="1" parent="1">
          <mxGeometry x="657.37" y="881" width="106" height="18" as="geometry" />
        </mxCell>
        <mxCell id="OuoGvUPbHA11eBhm7Cp8-41" style="edgeStyle=orthogonalEdgeStyle;rounded=0;orthogonalLoop=1;jettySize=auto;html=1;exitX=0.5;exitY=1;exitDx=0;exitDy=0;entryX=0.5;entryY=0;entryDx=0;entryDy=0;" edge="1" parent="1" source="OuoGvUPbHA11eBhm7Cp8-42" target="OuoGvUPbHA11eBhm7Cp8-39">
          <mxGeometry relative="1" as="geometry" />
        </mxCell>
        <mxCell id="OuoGvUPbHA11eBhm7Cp8-42" value="&lt;div data-en-clipboard=&quot;true&quot; data-pm-slice=&quot;1 1 []&quot; style=&quot;font-size: 11px;&quot;&gt;&lt;p class=&quot;MsoNormal&quot; style=&quot;font-size: 11px;&quot;&gt;&lt;i style=&quot;border-color: var(--border-color);&quot;&gt;provisioning-api&lt;/i&gt;&lt;br&gt;&lt;/p&gt;&lt;/div&gt;" style="rounded=1;whiteSpace=wrap;html=1;labelBorderColor=none;strokeColor=#b85450;strokeWidth=1;fontSize=11;fillColor=#f8cecc;shadow=1;fontStyle=1" vertex="1" parent="1">
          <mxGeometry x="684.25" y="741" width="108.87" height="38" as="geometry" />
        </mxCell>
        <mxCell id="OuoGvUPbHA11eBhm7Cp8-43" style="edgeStyle=orthogonalEdgeStyle;rounded=1;orthogonalLoop=1;jettySize=auto;html=1;exitX=0.5;exitY=0;exitDx=0;exitDy=0;exitPerimeter=0;entryX=0.75;entryY=1;entryDx=0;entryDy=0;strokeColor=#B3B3B3;" edge="1" parent="1" source="OuoGvUPbHA11eBhm7Cp8-44" target="OuoGvUPbHA11eBhm7Cp8-18">
          <mxGeometry relative="1" as="geometry" />
        </mxCell>
        <mxCell id="OuoGvUPbHA11eBhm7Cp8-44" value="queue-notifyexternal-campaign" style="shape=cylinder3;whiteSpace=wrap;html=1;boundedLbl=1;backgroundOutline=1;size=7.470000000000255;labelBorderColor=none;fontSize=11;fillColor=#dae8fc;direction=south;strokeColor=#6c8ebf;strokeWidth=1;fontStyle=1;shadow=1;" vertex="1" parent="1">
          <mxGeometry x="198.3400000000001" y="932" width="111.07" height="50" as="geometry" />
        </mxCell>
        <mxCell id="OuoGvUPbHA11eBhm7Cp8-45" style="edgeStyle=orthogonalEdgeStyle;rounded=1;orthogonalLoop=1;jettySize=auto;html=1;exitX=0.75;exitY=1;exitDx=0;exitDy=0;entryX=0.5;entryY=1;entryDx=0;entryDy=0;entryPerimeter=0;strokeColor=#B3B3B3;" edge="1" parent="1" target="OuoGvUPbHA11eBhm7Cp8-20">
          <mxGeometry relative="1" as="geometry">
            <mxPoint x="347.8100000000002" y="830" as="sourcePoint" />
            <Array as="points">
              <mxPoint x="347.93000000000006" y="957" />
            </Array>
          </mxGeometry>
        </mxCell>
        <mxCell id="OuoGvUPbHA11eBhm7Cp8-46" value="&lt;div data-en-clipboard=&quot;true&quot; data-pm-slice=&quot;1 1 []&quot;&gt;&lt;div data-en-clipboard=&quot;true&quot; data-pm-slice=&quot;1 1 []&quot;&gt;queue-satpush-api&lt;/div&gt;&lt;/div&gt;" style="shape=cylinder3;whiteSpace=wrap;html=1;boundedLbl=1;backgroundOutline=1;size=4.974729352678651;labelBorderColor=none;fontSize=11;fillColor=#dae8fc;direction=south;strokeColor=#6c8ebf;strokeWidth=1;fontStyle=1;shadow=1;" vertex="1" parent="1">
          <mxGeometry x="528.24" y="932" width="82.27" height="50" as="geometry" />
        </mxCell>
        <mxCell id="OuoGvUPbHA11eBhm7Cp8-47" value="&lt;div style=&quot;border-color: var(--border-color); text-align: left; font-size: 6.5px;&quot; data-en-clipboard=&quot;true&quot; data-pm-slice=&quot;1 1 []&quot;&gt;&lt;div style=&quot;border-color: var(--border-color); font-size: 6.5px;&quot; data-en-clipboard=&quot;true&quot; data-pm-slice=&quot;1 1 []&quot;&gt;&lt;div style=&quot;border-color: var(--border-color); font-size: 6.5px;&quot; data-en-clipboard=&quot;true&quot; data-pm-slice=&quot;1 1 []&quot;&gt;S:CAMPAIGNS:RECHARGE_BONUS:WHITELIST.PHONENUMBER&lt;/div&gt;&lt;div style=&quot;border-color: var(--border-color); font-size: 6.5px;&quot; data-en-clipboard=&quot;true&quot; data-pm-slice=&quot;1 1 []&quot;&gt;H:CAMPAINGS:SUBSCRIBERS.PHONENUMBER&lt;/div&gt;&lt;div style=&quot;border-color: var(--border-color); font-size: 6.5px;&quot; data-en-clipboard=&quot;true&quot; data-pm-slice=&quot;1 1 []&quot;&gt;H:CAMPAIGNS:RECHARGE_BONUS:PROMOTION.ID&lt;/div&gt;&lt;/div&gt;&lt;/div&gt;" style="rounded=1;whiteSpace=wrap;html=1;labelBorderColor=none;fontSize=6.5;strokeWidth=1;strokeColor=#b85450;shadow=1;fontStyle=0;align=center;fillColor=#f8cecc;arcSize=17;" vertex="1" parent="1">
          <mxGeometry x="428" y="571.25" width="204" height="49.5" as="geometry" />
        </mxCell>
        <mxCell id="OuoGvUPbHA11eBhm7Cp8-48" value="ESB" style="text;html=1;strokeColor=none;fillColor=none;align=left;verticalAlign=middle;whiteSpace=wrap;rounded=0;fontStyle=1;fontSize=13;" vertex="1" parent="1">
          <mxGeometry x="657.3700000000002" y="900" width="78.06" height="20" as="geometry" />
        </mxCell>
        <mxCell id="OuoGvUPbHA11eBhm7Cp8-49" style="edgeStyle=orthogonalEdgeStyle;rounded=0;orthogonalLoop=1;jettySize=auto;html=1;exitX=0.5;exitY=1;exitDx=0;exitDy=0;exitPerimeter=0;entryX=0.5;entryY=0;entryDx=0;entryDy=0;" edge="1" parent="1" source="OuoGvUPbHA11eBhm7Cp8-50" target="OuoGvUPbHA11eBhm7Cp8-51">
          <mxGeometry relative="1" as="geometry" />
        </mxCell>
        <mxCell id="OuoGvUPbHA11eBhm7Cp8-50" value="&lt;font style=&quot;font-size: 9px;&quot;&gt;Allowance Management&lt;br style=&quot;&quot;&gt;&lt;/font&gt;&lt;b style=&quot;font-size: 7px;&quot;&gt;/SolutionManagement/&lt;br style=&quot;&quot;&gt;OfferManagement/&lt;br style=&quot;&quot;&gt;AllowanceManagement/V1/V3&lt;/b&gt;" style="rounded=0;whiteSpace=wrap;html=1;labelBorderColor=none;fontSize=8;fillColor=#b1ddf0;shadow=1;strokeColor=#10739e;points=[[0,0,0,0,0],[0,0.25,0,0,0],[0,0.3,0,0,0],[0,0.5,0,0,0],[0,0.55,0,0,0],[0,0.75,0,0,0],[0,1,0,0,0],[0.25,0,0,0,0],[0.25,1,0,0,0],[0.5,0,0,0,0],[0.5,1,0,0,0],[0.75,0,0,0,0],[0.75,1,0,0,0],[1,0,0,0,0],[1,0.25,0,0,0],[1,0.5,0,0,0],[1,0.75,0,0,0],[1,1,0,0,0]];" vertex="1" parent="1">
          <mxGeometry x="677.98" y="926" width="125.39" height="48" as="geometry" />
        </mxCell>
        <mxCell id="OuoGvUPbHA11eBhm7Cp8-51" value="Aprovisionamiento de Bono" style="rounded=0;whiteSpace=wrap;html=1;shadow=1;glass=0;labelBorderColor=none;sketch=0;strokeWidth=1;fontSize=10;fillColor=#0050ef;strokeColor=#001DBC;fontColor=#ffffff;" vertex="1" parent="1">
          <mxGeometry x="677.98" y="988" width="125.39" height="20" as="geometry" />
        </mxCell>
        <mxCell id="OuoGvUPbHA11eBhm7Cp8-52" value="NOTIFEXT_EVENTS" style="rounded=1;whiteSpace=wrap;html=1;labelBorderColor=none;fontSize=9;strokeWidth=1;strokeColor=#b85450;shadow=1;fontStyle=0;align=center;fillColor=#FFF1ED;" vertex="1" parent="1">
          <mxGeometry x="198.34" y="609.5" width="181.66" height="20" as="geometry" />
        </mxCell>
      </root>
    </mxGraphModel>
  </diagram>
</mxfile>
